# xmcd
#
# Track frame offsets:
#	150
#	18882
#	36424
#	58516
#	76128
#	95880
#	114002
#	135179
#	155196
#	177173
#	196870
#	215962
#	237299
#	259436
#	279418
#
# Disc length: 3951 seconds
#
# Revision: 0
# Processed by: cddbd v1.5.2PL0 Copyright (c) Steve Scherf et al.
# Submitted via: EasyCDDAExtractor 10.0.2.1
#
DISCID=cf0f6d0f
DTITLE=Various Artist - 2007 Mainstream Stepper Vol 8
DYEAR=2007
DGENRE=R&B
TTITLE0=Liberty Silver - All In My Mind
TTITLE1=April Hill - The Search
TTITLE2=Jabari Grover - Pocket Full Of Dreams
TTITLE3=Kool and The Gang - Everything's Gonna Change
TTITLE4=NYR - Dance 4 Me
TTITLE5=John Legend - Another Again
TTITLE6=Chaka Khan - One For All Times
TTITLE7=Chaka Khan - Angel
TTITLE8=Robin Thicke - I Need Love
TTITLE9=Angie Stone - Baby
TTITLE10=Jermel/G. Womack - Work Yo Body
TTITLE11=Harlan Jefferson - You're All I Need
TTITLE12=Ty Causey - Keep It Smooth
TTITLE13=Prince - Mr. Goodnight
TTITLE14=Jazzmatazz - The Jazz Style
EXTD=
EXTT0=
EXTT1=
EXTT2=
EXTT3=
EXTT4=
EXTT5=
EXTT6=
EXTT7=
EXTT8=
EXTT9=
EXTT10=
EXTT11=
EXTT12=
EXTT13=
EXTT14=
PLAYORDER=
